<svg width="234" height="82" viewBox="0 0 234 82" fill="none" xmlns="http://www.w3.org/2000/svg">
<g clip-path="url(#clip0_3_110)">
<path d="M130.692 29.4075H126.249L109.785 11.6012V29.4075H106.211V7.68701H110.648L127.118 25.5059V7.68701H130.692V29.4075Z" fill="white"/>
<path d="M141.474 29.4075H137.9V7.68701H141.474V29.4075Z" fill="white"/>
<path d="M175.121 18.2195C175.121 21.7492 173.863 24.6045 171.354 26.7791C168.845 28.9537 165.509 30.0378 161.361 30.0378C157.568 30.0378 154.402 29.0671 151.861 27.1258C148.983 24.926 147.544 22.0581 147.544 18.5158C147.544 14.9734 149.002 12.1748 151.924 9.93724C154.483 7.97698 157.731 7 161.661 7C166.404 7 170.297 8.75226 173.332 12.2505L169.996 13.9334C167.756 11.513 164.877 10.3028 161.361 10.3028C158.62 10.3028 156.329 10.9836 154.483 12.345C152.337 13.9271 151.267 15.9819 151.267 18.5221C151.267 21.0622 152.193 22.9405 154.039 24.4596C155.885 25.9786 158.326 26.7413 161.367 26.7413C166.129 26.7413 169.227 24.8693 170.66 21.1315H160.622V17.8918H175.128V18.2195H175.121Z" fill="white"/>
<path d="M205.621 29.4075H202.048V19.7511H184.777V29.4075H181.204V7.68701H184.777V16.5113H202.048V7.68701H205.621V29.4075Z" fill="white"/>
<path d="M234 10.9268H223.694V29.4075H220.12V10.9268H209.814V7.68701H233.994V10.9268H234Z" fill="white"/>
<path d="M133.044 53.769C135.247 53.769 136.993 54.3867 138.288 55.6158C139.584 56.8449 140.222 58.49 140.222 60.5511C140.222 62.6122 139.552 64.3582 138.213 65.4991C136.874 66.6399 134.922 67.2072 132.362 67.2072H119.528V75.4832H115.955V53.7627H133.051L133.044 53.769ZM132.419 63.9674C135.178 63.9674 136.561 62.8455 136.561 60.6079C136.561 58.2064 135.103 57.0088 132.181 57.0088H119.528V63.9674H132.425H132.419Z" fill="white"/>
<path d="M168.482 75.4894H164.571L162.086 70.6297H147.562L145.078 75.4894H141.167L152.575 53.7689H157.074L168.482 75.4894ZM160.353 67.3899L154.859 56.87L149.302 67.3899H160.353Z" fill="white"/>
<path d="M191.441 58.8681C188.244 57.2293 184.99 56.4099 181.673 56.4099C179.47 56.4099 177.781 56.6683 176.611 57.1915C175.44 57.7147 174.852 58.4332 174.852 59.3535C174.852 60.2737 175.478 61.0112 176.729 61.4524C177.624 61.7739 179.082 61.9945 181.11 62.1142C184.089 62.3159 186.053 62.4735 187.005 62.5933C189.702 62.9525 191.698 63.6207 192.993 64.6039C194.282 65.5872 194.927 66.9739 194.927 68.7766C194.927 71.0772 193.913 72.8547 191.892 74.1153C189.864 75.3759 186.961 76.0062 183.169 76.0062C177.668 76.0062 173.388 74.7897 170.334 72.3441L172.299 69.7347C175.672 71.8147 179.308 72.8547 183.2 72.8547C185.722 72.8547 187.674 72.508 189.07 71.8021C190.396 71.1213 191.066 70.1948 191.066 69.0098C191.066 67.6294 190.19 66.7092 188.444 66.249C187.53 66.0095 185.071 65.7574 181.06 65.499C177.505 65.2595 175.015 64.7804 173.582 64.0619C171.911 63.2236 171.079 61.8117 171.079 59.8325C171.079 57.8533 172.024 56.183 173.92 55.0043C175.816 53.8256 178.488 53.2332 181.948 53.2332C186.592 53.2332 190.484 54.3047 193.625 56.4414L191.454 58.8744L191.441 58.8681Z" fill="white"/>
<path d="M219.407 58.8681C216.209 57.2293 212.955 56.4099 209.639 56.4099C207.436 56.4099 205.746 56.6683 204.576 57.1915C203.406 57.7147 202.818 58.4332 202.818 59.3535C202.818 60.2737 203.444 61.0112 204.695 61.4524C205.59 61.7739 207.048 61.9945 209.076 62.1142C212.054 62.3159 214.019 62.4735 214.97 62.5933C217.667 62.9525 219.664 63.6207 220.959 64.6039C222.248 65.5872 222.893 66.9739 222.893 68.7766C222.893 71.0772 221.879 72.8547 219.858 74.1153C217.83 75.3759 214.927 76.0062 211.134 76.0062C205.634 76.0062 201.354 74.7897 198.3 72.3441L200.265 69.7347C203.638 71.8147 207.273 72.8547 211.166 72.8547C213.687 72.8547 215.64 72.508 217.035 71.8021C218.362 71.1213 219.032 70.1948 219.032 69.0098C219.032 67.6294 218.155 66.7092 216.41 66.249C215.496 66.0095 213.037 65.7574 209.026 65.499C205.471 65.2595 202.981 64.7804 201.548 64.0619C199.877 63.2236 199.044 61.8117 199.044 59.8325C199.044 57.8533 199.989 56.183 201.885 55.0043C203.782 53.8256 206.454 53.2332 209.914 53.2332C214.557 53.2332 218.45 54.3047 221.591 56.4414L219.42 58.8744L219.407 58.8681Z" fill="white"/>
<path d="M102 40.8728H234" stroke="#27F45C" stroke-width="2" stroke-miterlimit="10"/>
</g>
<g clip-path="url(#clip1_3_110)">
<path d="M64.0525 0H17.9475C8.03537 0 0 8.03537 0 17.9475V64.0525C0 73.9646 8.03537 82 17.9475 82H64.0525C73.9646 82 82 73.9646 82 64.0525V17.9475C82 8.03537 73.9646 0 64.0525 0Z" fill="#27F45C"/>
<path d="M11.8049 41H70.1892" stroke="#231F20" stroke-width="3.33" stroke-miterlimit="10"/>
<path d="M27.3096 37.6797V30.0963L34.3653 37.6797H41.4328L28.6733 23.9656H21.6591V37.6797H27.3096Z" fill="#231F20"/>
<path d="M60.3349 23.9656H54.6904V37.6737H60.3349V23.9656Z" fill="#231F20"/>
<path d="M54.6904 44.3203V51.9155L47.6228 44.3203H40.5494L53.3148 58.0285H60.3349V44.3203H54.6904Z" fill="#231F20"/>
<path d="M27.3037 44.3203H21.6591V58.0285H27.3037V44.3203Z" fill="#231F20"/>
</g>
<defs>
<clipPath id="clip0_3_110">
<rect width="132" height="69" fill="white" transform="translate(102 7)"/>
</clipPath>
<clipPath id="clip1_3_110">
<rect width="82" height="82" fill="white"/>
</clipPath>
</defs>
</svg>
